<svg version="1" xmlns="http://www.w3.org/2000/svg" width="1365.333" height="1365.333" viewBox="0 0 1024.000000 1024.000000"><path d="M163.2 186.8L149 200.5V850h99.8l13.9-13.8 14-13.7-.1-210.7c-.1-115.9.2-210.4.5-210 .3.4 4.5 10.6 9.4 22.7 4.8 12.1 9.3 23.3 10 25 .8 1.6 3.7 8.8 6.5 16 8.7 21.9 21.1 52.8 22.5 56 .7 1.6 2.2 5.5 3.4 8.5 1.2 3 2.6 6.4 3.1 7.5.5 1.1 4.9 12.1 9.9 24.5 13.3 33.4 13.2 33.3 14.6 36.5.7 1.6 11.9 29.3 24.8 61.5 21.3 53 43.2 107.3 67.5 167.5l8.8 22 37 .3c37.5.2 41.4-.1 41.4-3.5 0-.7.4-1.3 1-1.3 1.6 0 24-22.3 24-23.9 0-1.3 32-82.6 36.4-92.6.8-1.7 1.7-4.1 2.1-5.5.4-1.4 1.6-4.3 2.6-6.5.9-2.2 7.4-18.4 14.4-36 6.9-17.6 13-32.9 13.5-34 1.2-2.5 30-74.6 30.4-76 .2-.6.8-2.4 1.5-4 9.3-22.8 11.7-28.9 13.6-34 3-7.8 8.3-21.4 9.5-24 1.2-2.7 5.1-12.4 31-77.5 12.1-30.5 22.5-56.4 23-57.5.5-1.2.7 5.8.3 18.5-.3 11.3-.6 118.8-.7 239v218.5l53.4.3 53.5.2 5-4.6c14.6-13.5 24.6-23.7 23.8-24.3-.6-.4-.9-119.9-.8-323.1 0-177.4-.1-323.1-.3-323.8-.3-.9-15.9-1.2-73.5-1.2h-73.1l-14 14.4-14.1 14.3-8.9 22.9c-4.9 12.6-9.4 23.5-10 24.3-.6.8-1 1.5-.8 1.5.2.1-.1 1.2-.6 2.6-2.1 5.3-38.4 95.7-39.7 98.5-.7 1.6-5.9 14.5-11.5 28.5-5.7 14-14.7 36.4-20.1 49.8-5.5 13.4-9.9 24.6-9.9 24.8 0 .3-.8 2.4-1.9 4.7-1 2.3-6 14.5-11 27.2-5 12.6-9.6 23.9-10.1 25-.5 1.1-11.3 27.9-24.1 59.5-12.7 31.6-24.5 61.1-26.3 65.5-1.8 4.4-4.1 10.1-5 12.8l-1.8 4.7-4.8-13.7c-4.5-12.9-12-33.3-14-37.8-1-2.2-16.3-41-33-83.5-9.8-25-23-58.5-34.5-87.5-19.3-48.8-45.3-115-58.6-149-5-12.7-9.5-23.9-9.9-25-.5-1.1-1.9-4.5-3-7.5-1.2-3-2.7-6.9-3.4-8.5-.7-1.7-7.1-17.7-14.2-35.8L328.5 173h-151l-14.3 13.8z"/></svg>