<svg version="1" xmlns="http://www.w3.org/2000/svg" width="1365.333" height="1365.333" viewBox="0 0 1024.000000 1024.000000"><path d="M230 248.7c-.1 13.1 0 506.2 0 511.5v3.8H310.7l-.3-203.8c-.1-112-.5-206-.7-208.7-.9-9.8-1.9-31-1.4-30.5.3.3 2.6 8.8 5 19 5.6 22.7 9.3 34.2 15.2 47.5 1.3 2.9 34.4 85.1 63.6 158 8.2 20.3 15.3 38 15.9 39.2 1.5 3.5 2.1 4.9 14.1 34.8 6.1 15.4 11.7 29.3 12.4 31 .7 1.6 6.4 15.6 12.5 31 6.2 15.4 11.8 29.3 12.6 31 .7 1.6 3.1 7.7 5.4 13.5 2.2 5.8 4.4 11.4 4.9 12.5.5 1.1 1.9 4.5 3.1 7.5 1.3 3 3.1 7.3 4 9.5 1 2.2 2.1 5 2.4 6.2l.7 2.3h60.4l50.4-126.3c27.7-69.4 50.9-127.6 51.7-129.2.7-1.7 6.3-15.6 12.4-31 6.1-15.4 11.7-29.4 12.5-31.2.8-1.7 1.5-3.5 1.5-4 0-.6.6-2.3 1.4-3.9.8-1.6 3.5-8.3 6.1-14.9 2.6-6.6 5.3-13.4 6.1-15 .7-1.7 1.9-4.8 2.7-7 .8-2.2 4.4-11.4 8.1-20.4 7.2-17.9 9.8-25.6 15-46 1.9-7.3 3.8-13.6 4.1-14 .6-.5 0 12.2-1 21.4-.2 2.2-.7 9.2-1.1 15.5-.4 6.3-.9 13.7-1.2 16.5-.2 2.7-.6 91.5-.9 197.2l-.4 192.3h86.8V238H676.2l-5.5 13.7c-8.1 20.2-32 79.1-43.2 106.8-5.3 13.2-13.3 33-17.7 44-4.3 11-8.5 21.3-9.2 23-.7 1.6-1.8 4.1-2.4 5.5-.6 1.4-8.2 20-16.8 41.5-27.5 68.7-30.5 76-31.4 78-.5 1.1-1.9 4.5-3.1 7.5-1.1 3-2.7 6.8-3.4 8.5-5.6 12.7-21 53.7-26.5 71-3.4 10.4-4.6 12.8-5.4 10.4-.2-.8-2.1-6.8-4.1-13.4-2-6.6-5.3-16.3-7.2-21.5-4.6-12.6-14.2-37.7-15.9-41.5-2.1-4.8-22.4-56.6-22.4-57.2 0-.3-.6-1.9-1.4-3.6-.8-1.8-4.8-11.8-9-22.2-4.1-10.5-12.2-31.2-18.1-46-13.4-33.7-33.4-84.4-43.2-109.5-1.4-3.6-3.1-7.9-3.8-9.5-.8-1.7-5-12.5-9.5-24-8.5-22-13.3-34-15.4-39-.7-1.7-3-7.4-5.1-12.8l-3.8-9.7H230v10.7z"/></svg>